<svg width="28" height="28" viewBox="0 0 28 28" fill="none" xmlns="http://www.w3.org/2000/svg">
<path d="M21.0012 23.3333H23.3333V25.6667H14C7.5565 25.6667 2.33333 20.4435 2.33333 14C2.33333 7.55651 7.5565 2.33334 14 2.33334C20.4435 2.33334 25.6667 7.55651 25.6667 14C25.6682 15.8113 25.2472 17.5981 24.4374 19.2183C23.6275 20.8384 22.4509 22.2475 21.0012 23.3333ZM14 11.6667C14.6188 11.6667 15.2123 11.4208 15.6499 10.9833C16.0875 10.5457 16.3333 9.95218 16.3333 9.33334C16.3333 8.71451 16.0875 8.12101 15.6499 7.68343C15.2123 7.24584 14.6188 7.00001 14 7.00001C13.3812 7.00001 12.7877 7.24584 12.3501 7.68343C11.9125 8.12101 11.6667 8.71451 11.6667 9.33334C11.6667 9.95218 11.9125 10.5457 12.3501 10.9833C12.7877 11.4208 13.3812 11.6667 14 11.6667ZM9.33333 16.3333C9.95217 16.3333 10.5457 16.0875 10.9832 15.6499C11.4208 15.2123 11.6667 14.6188 11.6667 14C11.6667 13.3812 11.4208 12.7877 10.9832 12.3501C10.5457 11.9125 9.95217 11.6667 9.33333 11.6667C8.71449 11.6667 8.121 11.9125 7.68342 12.3501C7.24583 12.7877 7 13.3812 7 14C7 14.6188 7.24583 15.2123 7.68342 15.6499C8.121 16.0875 8.71449 16.3333 9.33333 16.3333ZM18.6667 16.3333C19.2855 16.3333 19.879 16.0875 20.3166 15.6499C20.7542 15.2123 21 14.6188 21 14C21 13.3812 20.7542 12.7877 20.3166 12.3501C19.879 11.9125 19.2855 11.6667 18.6667 11.6667C18.0478 11.6667 17.4543 11.9125 17.0167 12.3501C16.5792 12.7877 16.3333 13.3812 16.3333 14C16.3333 14.6188 16.5792 15.2123 17.0167 15.6499C17.4543 16.0875 18.0478 16.3333 18.6667 16.3333ZM14 21C14.6188 21 15.2123 20.7542 15.6499 20.3166C16.0875 19.879 16.3333 19.2855 16.3333 18.6667C16.3333 18.0478 16.0875 17.4543 15.6499 17.0168C15.2123 16.5792 14.6188 16.3333 14 16.3333C13.3812 16.3333 12.7877 16.5792 12.3501 17.0168C11.9125 17.4543 11.6667 18.0478 11.6667 18.6667C11.6667 19.2855 11.9125 19.879 12.3501 20.3166C12.7877 20.7542 13.3812 21 14 21Z" fill="white"/>
</svg>
